<?xml version="1.0" encoding="UTF-8"?>
<svg id="Layer_1" data-name="Layer 1" xmlns="http://www.w3.org/2000/svg" version="1.1" viewBox="0 0 360 110.8">
  <defs>
    <style>
      .cls-1 {
        fill: #e4e4e4;
      }

      .cls-1, .cls-2, .cls-3, .cls-4, .cls-5 {
        stroke-width: 0px;
      }

      .cls-2 {
        fill: #92c13e;
      }

      .cls-3 {
        fill: #33a4ac;
      }

      .cls-4 {
        fill: #4e4e4f;
      }

      .cls-5 {
        fill: #2a343d;
      }
    </style>
  </defs>
  <g>
    <g>
      <path class="cls-5" d="M102.7,51.8h4.4c2,0,3.4,1.5,3.4,3.6s-1.4,3.6-3.4,3.6h-1.8v3.2h-2.6v-10.5ZM106.5,56.8c.9,0,1.3-.6,1.3-1.4s-.4-1.4-1.3-1.4h-1.3v2.8h1.3Z"/>
      <path class="cls-5" d="M112.1,51.8h2.6v10.5h-2.6v-10.5Z"/>
      <path class="cls-5" d="M117.4,51.8h2.6l2.9,4.9c.4.7.9,1.8.9,1.8h0s-.1-1.1-.1-1.8v-4.9h2.6v10.5h-2.6l-2.9-4.9c-.4-.7-.9-1.8-.9-1.8h0s.1,1.1.1,1.8v4.9h-2.6v-10.5ZM120.7,48.8c1,0,1.3.9,1.8.9s.5-.3.5-.8h1.6c0,1.5-.6,2.2-1.9,2.2s-1.3-.9-1.8-.9-.5.3-.5.8h-1.6c0-1.5.6-2.2,1.9-2.2Z"/>
      <path class="cls-5" d="M134.1,60.1h-3.3l-.6,2.2h-2.6l3.6-10.5h2.7l3.6,10.5h-2.6l-.6-2.2ZM132.5,54.2s-.2,1.1-.4,1.8l-.6,2h2.1l-.6-2c-.2-.7-.4-1.8-.4-1.8h0Z"/>
    </g>
    <g>
      <g>
        <path class="cls-5" d="M42.2,51.8h2.8l1.5,4.4c.2.7.5,1.7.5,1.7h0s.3-1.1.5-1.7l1.5-4.4h2.8l.9,10.5h-2.6l-.3-4.7c0-.8,0-1.8,0-1.8h0s-.4,1.1-.6,1.8l-1.1,3h-2.2l-1.1-3c-.2-.7-.6-1.8-.6-1.8h0s0,1,0,1.8l-.3,4.7h-2.6l.9-10.5Z"/>
        <path class="cls-5" d="M54.8,51.8h2.6v10.5h-2.6v-10.5Z"/>
        <path class="cls-5" d="M64.5,51.6c2.7,0,4,1.4,4,1.4l-1.2,1.9s-1.1-1-2.6-1c-2.2,0-3.1,1.4-3.1,3s1.4,3.2,3,3.2,2.1-.8,2.1-.8v-.8h-1.5v-2.2h3.8v5.9h-2.1v-.3c0-.2,0-.4,0-.4h0s-1,.9-2.8.9c-2.7,0-5.2-2-5.2-5.4s2.3-5.4,5.5-5.4Z"/>
        <path class="cls-5" d="M70.7,51.8h2.6v6.6c0,1.1.7,1.7,1.8,1.7s1.8-.6,1.8-1.7v-6.6h2.6v6.6c0,2.4-1.7,4-4.4,4s-4.4-1.7-4.4-4v-6.6Z"/>
        <path class="cls-5" d="M81.6,51.8h6.6v2.2h-4v1.9h3.2v2.2h-3.2v2h4.2v2.2h-6.8v-10.5Z"/>
        <path class="cls-5" d="M90.1,51.8h2.6v8.3h4.3v2.2h-6.9v-10.5Z"/>
      </g>
      <g>
        <path class="cls-5" d="M42.2,51.8h2.8l1.5,4.4c.2.7.5,1.7.5,1.7h0s.3-1.1.5-1.7l1.5-4.4h2.8l.9,10.5h-2.6l-.3-4.7c0-.8,0-1.8,0-1.8h0s-.4,1.1-.6,1.8l-1.1,3h-2.2l-1.1-3c-.2-.7-.6-1.8-.6-1.8h0s0,1,0,1.8l-.3,4.7h-2.6l.9-10.5Z"/>
        <path class="cls-5" d="M54.8,51.8h2.6v10.5h-2.6v-10.5Z"/>
        <path class="cls-5" d="M64.5,51.6c2.7,0,4,1.4,4,1.4l-1.2,1.9s-1.1-1-2.6-1c-2.2,0-3.1,1.4-3.1,3s1.4,3.2,3,3.2,2.1-.8,2.1-.8v-.8h-1.5v-2.2h3.8v5.9h-2.1v-.3c0-.2,0-.4,0-.4h0s-1,.9-2.8.9c-2.7,0-5.2-2-5.2-5.4s2.3-5.4,5.5-5.4Z"/>
        <path class="cls-5" d="M70.7,51.8h2.6v6.6c0,1.1.7,1.7,1.8,1.7s1.8-.6,1.8-1.7v-6.6h2.6v6.6c0,2.4-1.7,4-4.4,4s-4.4-1.7-4.4-4v-6.6Z"/>
        <path class="cls-5" d="M81.6,51.8h6.6v2.2h-4v1.9h3.2v2.2h-3.2v2h4.2v2.2h-6.8v-10.5Z"/>
        <path class="cls-5" d="M90.1,51.8h2.6v8.3h4.3v2.2h-6.9v-10.5Z"/>
      </g>
    </g>
  </g>
  <rect class="cls-3" x="40.7" y="66.7" width="97.3" height="1.8"/>
  <path class="cls-2" d="M22.6,42.9l-12.9,9.2v16.3h7.4c2,0,3.9-.8,5.2-2.2l.4-.4.7.7c1.4,1.3,3.1,2,5,2h7v-16.3l-12.8-9.2ZM22.7,63.6l-1.5-1.4,1.3-1.3,1.4,1.4-1.2,1.3ZM25.3,58c.5.5.9,1,1.3,1.4l-1.5,1.6-1.4-1.4,1.6-1.6ZM22.6,58.5l-1.7-1.8c.5-.5,1-1,1.6-1.4.6.5,1.2,1.1,1.7,1.6l-1.6,1.6ZM21.4,59.6l-1.3,1.4-1.7-1.7c.4-.4.8-.9,1.3-1.5l1.7,1.8ZM33.9,66.9h-5.5c-1.5,0-2.9-.6-3.9-1.6l-.7-.7,1.2-1.3,1,1,.9-1.3-.8-.8,1.4-1.6v-2.1c-.2-.2-.6-.7-1.3-1.4l1.1-1.2-.9-1.4-1.3,1.4c-.5-.5-1-1-1.6-1.5.1,0,.2-.2.3-.2h0s0,0,0,0c1.5-1.1,3-1.9,4.1-1.9,0,0,0,0,0,0v-1.5c-1.1,0-2.4.6-3.7,1.4.8-1.7,2.6-2.3,2.6-2.3l-.2-.7-.2-.7c-.9.3-2.2,1-3.1,2.4v-3.4h-1.5v3.3c-.9-1.3-2.2-2-3-2.3l-.5,1.4s2,.7,2.8,2.6c-1.5-1-3-1.7-4.2-1.7v1.5s0,0,0,0c1.2-.1,2.8.8,4.4,2.1-.5.5-1,.9-1.5,1.3l-1.2-1.3-.9,1.4,1,1.1c-.7.8-1.2,1.3-1.4,1.5v2.1l1.7,1.6-.9.9.9,1.3,1.1-1.1,1.5,1.5-.4.4c-1.1,1.1-2.6,1.8-4.1,1.8h-5.9v-14l11.4-8.1,11.3,8.1v14Z"/>
  <g>
    <g>
      <path class="cls-2" d="M199.4,49.5l-1.7,1.3c-1-1.2-2.1-2.2-3.4-2.8-1.3-.6-2.8-1-4.4-1s-3.4.4-4.9,1.3-2.7,2-3.5,3.4c-.8,1.4-1.2,3-1.2,4.8,0,2.7.9,4.9,2.8,6.7,1.8,1.8,4.2,2.7,7,2.7s5.7-1.2,7.7-3.6l1.7,1.3c-1.1,1.4-2.5,2.5-4.1,3.2-1.6.8-3.5,1.1-5.5,1.1-3.8,0-6.9-1.3-9.1-3.8-1.9-2.2-2.8-4.8-2.8-7.8s1.1-5.9,3.4-8.1c2.3-2.2,5.1-3.3,8.5-3.3s3.9.4,5.6,1.2c1.7.8,3,2,4.1,3.4"/>
      <polygon class="cls-2" points="200.3 67.9 203.5 46 203.8 46 212.8 64 221.6 46 222 46 225.1 67.9 223 67.9 220.8 52.2 213.1 67.9 212.5 67.9 204.6 52.1 202.5 67.9 200.3 67.9"/>
      <path class="cls-2" d="M248.3,49.1l-1.7,1.6c-1.2-1.2-2.6-2.1-4-2.7-1.5-.6-2.9-.9-4.3-.9s-3.4.4-4.9,1.3c-1.6.8-2.8,2-3.6,3.4-.9,1.4-1.3,3-1.3,4.6s.4,3.2,1.3,4.7c.9,1.5,2.1,2.7,3.7,3.5,1.6.9,3.3,1.3,5.1,1.3s4.2-.6,5.7-1.9c1.6-1.3,2.5-2.9,2.8-5h-7v-2.1h9.5c0,3.4-1,6.1-3,8.1-2,2-4.7,3-8,3s-7.3-1.4-9.7-4.2c-1.8-2.1-2.7-4.6-2.7-7.4s.5-4,1.6-5.8c1-1.8,2.5-3.2,4.3-4.2,1.8-1,3.9-1.5,6.2-1.5s3.6.3,5.3,1c1.6.7,3.2,1.8,4.8,3.2"/>
    </g>
    <g>
      <path class="cls-4" d="M252.7,56.8h1.1v4.6h5.6v-4.6h1.1v11.1h-1.1v-5.4h-5.6v5.4h-1.1v-11.1Z"/>
      <path class="cls-4" d="M274.4,62.4c0,3.3-2.5,5.8-5.8,5.8s-5.8-2.7-5.8-5.8,2.6-5.9,5.8-5.9,5.9,2.5,5.9,5.8ZM263.9,62.4c0,2.7,2.2,4.7,4.7,4.7s4.7-2,4.7-4.8-2.3-4.7-4.7-4.7-4.7,1.9-4.7,4.8Z"/>
      <path class="cls-4" d="M276.1,67.9l1.6-11.1h.2l4.5,9.1,4.5-9.1h.2l1.6,11.1h-1.1l-1.1-7.9-3.9,7.9h-.3l-4-8-1.1,8h-1.1Z"/>
      <path class="cls-4" d="M290.8,56.8h6.3v1.1h-5.2v3.5h5.2v1.1h-5.2v4.4h5.2v1.1h-6.3v-11.1Z"/>
      <path class="cls-4" d="M303.3,56.8h1.1v10h4.3v1.1h-5.4v-11.1Z"/>
      <path class="cls-4" d="M320.7,62.4c0,3.3-2.5,5.8-5.8,5.8s-5.8-2.7-5.8-5.8,2.6-5.9,5.8-5.9,5.9,2.5,5.9,5.8ZM310.2,62.4c0,2.7,2.2,4.7,4.7,4.7s4.7-2,4.7-4.8-2.3-4.7-4.7-4.7-4.7,1.9-4.7,4.8Z"/>
      <path class="cls-4" d="M326.5,56.8l5.2,11.1h-1.2l-1.7-3.6h-4.8l-1.7,3.6h-1.2l5.2-11.1h.3ZM326.4,59.2l-1.9,4h3.8l-1.9-4Z"/>
      <path class="cls-4" d="M333.4,67.9v-11.1h.2l7.3,8.5v-8.5h1.1v11.1h-.2l-7.3-8.4v8.4h-1.1Z"/>
      <path class="cls-4" d="M349.5,59.1c-.6-.8-1.1-1.4-2-1.4s-1.5.7-1.5,1.4.4,1.2,1,1.7c2.1,1.5,3.6,2.6,3.6,4.4s-1.3,3-3.1,3-2.5-.8-3.3-2.3l.9-.6c.7,1.2,1.5,1.8,2.3,1.8s2.1-.8,2.1-1.9-1.1-1.9-3.7-4c-.5-.4-.9-1.3-.9-2.1,0-1.5,1.2-2.6,2.7-2.6s2.2.8,2.9,1.8l-.9.7Z"/>
    </g>
  </g>
  <rect class="cls-1" x="158" y="38" width=".9" height="34.3"/>
</svg>